# xmcd CD database file
#
# Track frame offsets:
#	150
#	16438
#	26712
#	39047
#	51636
#	71296
#	86103
#	100635
#	114071
#	132126
#	148865
#	170435
#	180943
#	190422
#
# Disc length: 2736 seconds
#
# Revision: 0
# Processed by: cddbd v1.5.1PL2 Copyright (c) Steve Scherf et al.
# Submitted via: CDex 1.51
#
DISCID=b30aae0e
DTITLE=Enrique Varela - De Stardust a Flores Negras
DYEAR=2005
DGENRE=Jazz
TTITLE0=Alrededor de Medianoche
TTITLE1=Sólo para dos
TTITLE2=Quedémosnos Aquí
TTITLE3=Airegin
TTITLE4=Qué haces el resto de tu vida
TTITLE5=La trunca norte
TTITLE6=Asesino joe
TTITLE7=Otoño tempranero
TTITLE8=Flores Negras
TTITLE9=Polvo de estrellas
TTITLE10=El arbol fiel
TTITLE11=Bouquet de Heliotropos
TTITLE12=Toma el tren B
TTITLE13=Años de soledad
EXTD=YEAR: 2005
EXTT0=
EXTT1=
EXTT2=
EXTT3=
EXTT4=
EXTT5=
EXTT6=
EXTT7=
EXTT8=
EXTT9=
EXTT10=
EXTT11=
EXTT12=
EXTT13=
PLAYORDER=
